<svg width="23" height="23" viewBox="0 0 23 23" fill="none" xmlns="http://www.w3.org/2000/svg">
<path d="M18.6559 6.73993L13.3669 3.03948C11.9253 2.02944 9.71241 2.08453 8.3259 3.15885L3.72559 6.74911C2.80737 7.46533 2.08197 8.93448 2.08197 10.0914V16.4272C2.08197 18.7687 3.98269 20.6786 6.32417 20.6786H16.2226C18.5641 20.6786 20.4648 18.7778 20.4648 16.4364V10.2108C20.4648 8.97121 19.666 7.44696 18.6559 6.73993ZM11.9621 17.0057C11.9621 17.3821 11.6499 17.6943 11.2734 17.6943C10.8969 17.6943 10.5847 17.3821 10.5847 17.0057V14.251C10.5847 13.8745 10.8969 13.5623 11.2734 13.5623C11.6499 13.5623 11.9621 13.8745 11.9621 14.251V17.0057Z" fill="#2061DD"/>
</svg>
