<svg width="87" height="52" viewBox="0 0 87 52" fill="none" xmlns="http://www.w3.org/2000/svg">
<path d="M16.1977 2.25101C17.1507 0.843285 18.74 0 20.44 0H85.933C86.3439 0 86.5876 0.459323 86.3573 0.799529L78.1906 12.8623C77.2375 14.27 75.6482 15.1133 73.9482 15.1133H7.48969L16.1977 2.25101Z" fill="black"/>
<path d="M22.0899 26.6023C22.5753 25.9798 23.3207 25.6158 24.1101 25.6158H61.0022C61.4288 25.6158 61.6685 26.1067 61.4062 26.4431L51.0372 39.7425C50.5518 40.3651 49.8064 40.7291 49.017 40.7291H11.0759L22.0899 26.6023Z" fill="black"/>
<path d="M11.0759 40.7291H34.1301L26.9545 50.9138C26.4747 51.5948 25.6936 52 24.8605 52H4.12266C3.70747 52 3.46472 51.532 3.70385 51.1926L11.0759 40.7291Z" fill="black"/>
<path d="M7.94089 14.4729H30.9951L23.8195 24.6576C23.3396 25.3387 22.5585 25.7438 21.7254 25.7438H0.987622C0.572435 25.7438 0.329685 25.2759 0.568814 24.9365L7.94089 14.4729Z" fill="black"/>
</svg>
