<svg width="32" height="32" viewBox="0 0 32 32" fill="none" xmlns="http://www.w3.org/2000/svg">
<path d="M27.7904 22.8599C27.3468 23.8848 26.8217 24.8281 26.2134 25.6954C25.3841 26.8778 24.7051 27.6962 24.1818 28.1506C23.3706 28.8966 22.5015 29.2787 21.5709 29.3004C20.9027 29.3004 20.097 29.1103 19.1591 28.7246C18.2181 28.3408 17.3533 28.1506 16.5626 28.1506C15.7334 28.1506 14.844 28.3408 13.8927 28.7246C12.9399 29.1103 12.1724 29.3113 11.5855 29.3312C10.6931 29.3692 9.80351 28.9763 8.91557 28.1506C8.34884 27.6563 7.63997 26.809 6.79078 25.6085C5.87967 24.3266 5.1306 22.84 4.54378 21.1453C3.9153 19.3147 3.60025 17.5421 3.60025 15.8259C3.60025 13.8601 4.02503 12.1646 4.87585 10.7438C5.54452 9.60258 6.43409 8.70233 7.54745 8.04144C8.66081 7.38056 9.8638 7.04378 11.1593 7.02223C11.8682 7.02223 12.7978 7.2415 13.953 7.67243C15.1049 8.10482 15.8445 8.32408 16.1688 8.32408C16.4113 8.32408 17.2329 8.0677 18.6259 7.55655C19.9431 7.08252 21.0548 6.88625 21.9656 6.96357C24.4335 7.16274 26.2876 8.1356 27.5206 9.8883C25.3135 11.2256 24.2216 13.0988 24.2434 15.5017C24.2633 17.3733 24.9423 18.9308 26.2767 20.1675C26.8815 20.7415 27.5568 21.1851 28.3083 21.5001C28.1453 21.9727 27.9733 22.4254 27.7904 22.8599V22.8599ZM22.1304 0.5872C22.1304 2.0542 21.5944 3.42394 20.5261 4.69175C19.2369 6.19893 17.6776 7.06985 15.9867 6.93242C15.9651 6.75643 15.9526 6.5712 15.9526 6.37655C15.9526 4.96823 16.5657 3.46105 17.6544 2.22873C18.198 1.60478 18.8893 1.08598 19.7276 0.672118C20.5641 0.264433 21.3554 0.038975 22.0996 0.000366211C22.1213 0.196481 22.1304 0.392609 22.1304 0.587181V0.5872Z" fill="black"/>
</svg>
