<svg width="32" height="33" viewBox="0 0 32 33" fill="none" xmlns="http://www.w3.org/2000/svg">
<g clip-path="url(#clip0_9967_131838)">
<path d="M27.7904 23.3599C27.3468 24.3848 26.8217 25.3281 26.2134 26.1954C25.3841 27.3778 24.7051 28.1962 24.1818 28.6506C23.3706 29.3966 22.5015 29.7787 21.5709 29.8004C20.9027 29.8004 20.097 29.6103 19.1591 29.2246C18.2181 28.8408 17.3533 28.6506 16.5626 28.6506C15.7334 28.6506 14.844 28.8408 13.8927 29.2246C12.9399 29.6103 12.1724 29.8113 11.5855 29.8312C10.6931 29.8692 9.80351 29.4763 8.91557 28.6506C8.34884 28.1563 7.63997 27.309 6.79078 26.1085C5.87967 24.8266 5.1306 23.34 4.54378 21.6453C3.9153 19.8147 3.60025 18.0421 3.60025 16.3259C3.60025 14.3601 4.02503 12.6646 4.87585 11.2438C5.54452 10.1026 6.43409 9.20233 7.54745 8.54144C8.66081 7.88056 9.8638 7.54378 11.1593 7.52223C11.8682 7.52223 12.7978 7.7415 13.953 8.17243C15.1049 8.60482 15.8445 8.82408 16.1688 8.82408C16.4113 8.82408 17.2329 8.5677 18.6259 8.05655C19.9431 7.58252 21.0548 7.38625 21.9656 7.46357C24.4335 7.66274 26.2876 8.6356 27.5206 10.3883C25.3135 11.7256 24.2216 13.5988 24.2434 16.0017C24.2633 17.8733 24.9423 19.4308 26.2767 20.6675C26.8815 21.2415 27.5568 21.6851 28.3083 22.0001C28.1453 22.4727 27.9733 22.9254 27.7904 23.3599V23.3599ZM22.1304 1.0872C22.1304 2.5542 21.5944 3.92394 20.5261 5.19175C19.2369 6.69893 17.6776 7.56985 15.9867 7.43242C15.9651 7.25643 15.9526 7.0712 15.9526 6.87655C15.9526 5.46823 16.5657 3.96105 17.6544 2.72873C18.198 2.10478 18.8893 1.58598 19.7276 1.17212C20.5641 0.764433 21.3554 0.538975 22.0996 0.500366C22.1213 0.696481 22.1304 0.892609 22.1304 1.08718V1.0872Z" fill="white"/>
</g>
<defs>
<clipPath id="clip0_9967_131838">
<rect width="32" height="32" fill="white" transform="translate(0 0.5)"/>
</clipPath>
</defs>
</svg>
