<svg width="32" height="33" viewBox="0 0 32 33" fill="none" xmlns="http://www.w3.org/2000/svg">
<g clip-path="url(#clip0_9967_131837)">
<path fill-rule="evenodd" clip-rule="evenodd" d="M22.4565 9.23046C20.8045 7.65486 18.5998 6.79651 16.3187 6.83178C12.1446 6.83178 8.59947 9.64785 7.33544 13.4399V13.4399C6.66523 15.4271 6.66523 17.5788 7.33544 19.566H7.34131C8.6112 23.3521 12.1504 26.1682 16.3246 26.1682C18.4793 26.1682 20.3291 25.6171 21.7628 24.6436V24.6397C23.4501 23.5226 24.6024 21.7648 24.961 19.7776H16.3187V13.6163H31.4104C31.5986 14.6863 31.6868 15.7798 31.6868 16.8675C31.6868 21.7339 29.9476 25.8483 26.9215 28.635L26.9246 28.6374C24.2732 31.0831 20.634 32.5 16.3187 32.5C10.2691 32.5 4.73686 29.0901 2.02071 23.6872V23.6872C-0.248609 19.1662 -0.248603 13.8397 2.02073 9.31869H2.02076L2.02071 9.31865C4.73686 3.90986 10.2691 0.49998 16.3187 0.49998C20.293 0.452947 24.132 1.94624 27.0246 4.66239L22.4565 9.23046Z" fill="white"/>
</g>
<defs>
<clipPath id="clip0_9967_131837">
<rect width="32" height="32" fill="white" transform="translate(0 0.5)"/>
</clipPath>
</defs>
</svg>
